# xmcd
#
# Track frame offsets: 
#        187
#        9472
#        23730
#        34360
#        48490
#        61060
#        74987
#        90812
#        104665
#        116845
#        133917
#        147690
#        161342
#        171645
#        183580
#
# Disc length: 2623 seconds
#
# Revision: 5
# Processed by: cddbd v1.5.2PL0 Copyright (c) Steve Scherf et al.
# Submitted via: ExactAudioCopy v1.0b6
#
DISCID=e20a3d0f
DTITLE=Dolly Parton - The RCA Years 1967-1986 - Disc 1
DYEAR=1993
DGENRE=Country
TTITLE0=The Letter (1972)
TTITLE1=Muleskinner Blues (1970)
TTITLE2=Put It Off Until Tomorrow with Porter Wagoner (1967)
TTITLE3=My Tennessee Mountain Home (1972)
TTITLE4=In the Good Old Days (When Times Were Bad  1968)
TTITLE5=Coat of Many Colors (1973)
TTITLE6=My Blue Ridge Mountain Boy (1969)
TTITLE7=Just Because I'm a Woman (1967)
TTITLE8=Jolene (1973)
TTITLE9=Down from Dover (1969)
TTITLE10=The Last One To Touch Me (1971)
TTITLE11=Daddy Come and Get Me (1969)
TTITLE12=My Blue Tears (1971)
TTITLE13=Kentucky Gambler (1973)
TTITLE14=I Will Always Love You (1973)
EXTD=
EXTT0=
EXTT1=
EXTT2=
EXTT3=
EXTT4=
EXTT5=
EXTT6=
EXTT7=
EXTT8=
EXTT9=
EXTT10=
EXTT11=
EXTT12=
EXTT13=
EXTT14=
PLAYORDER=
